<svg version="1.1" width="86" height="67" xmlns="http://www.w3.org/2000/svg" xmlns:xlink="http://www.w3.org/1999/xlink">
  <!-- Exported by Scratch - http://scratch.mit.edu/ -->
  <path id="ID0.30604277458041906" fill="none" stroke="#FFFFFF" stroke-width="1.995125" stroke-linecap="round" d="M 181.950 160 C 181.950 160 180.060 160.997 179.400 161.800 C 178.324 163.108 177.011 164.514 176.850 166.200 C 176.740 167.354 178.057 168.185 178.700 169.150 C 178.861 169.391 178.922 169.724 179.050 169.500 C 179.561 168.602 179.716 167.537 180.150 166.600 C 180.451 165.950 181.090 165.449 181.250 164.750 C 181.469 163.792 181.250 162.782 181.250 161.800 Z " transform="matrix(1, 0, 0, 1, -175, -133)"/>
  <path id="ID0.838141375221312" fill="none" stroke="#FFFFFF" stroke-width="1.995125" stroke-linecap="round" d="M 201.750 150.100 C 201.750 150.100 204.503 149.268 205.750 149.750 C 206.960 150.217 207.808 151.472 208.350 152.650 C 209.196 154.488 209.160 156.631 209.800 158.550 C 209.960 159.030 209.732 159.196 210.550 159.250 C 213.823 159.466 217.152 158.793 220.400 159.250 C 221.648 159.426 223.205 159.941 223.700 161.100 C 224.155 162.165 223.229 163.427 222.600 164.400 C 222.086 165.195 221.133 165.601 220.400 166.200 " transform="matrix(1, 0, 0, 1, -175, -133)"/>
  <path id="ID0.718152979388833" fill="none" stroke="#FFFFFF" stroke-width="1.995125" stroke-linecap="round" d="M 190.750 186 C 190.750 186 189.168 189.729 188.200 191.500 C 187.697 192.421 186.620 193.036 186.350 194.050 C 186.099 194.992 186.029 196.294 186.750 196.950 C 187.772 197.879 189.400 197.759 190.750 198.050 C 191.108 198.127 191.941 198.382 191.850 198.050 C 191.591 197.107 190.462 196.454 190.050 195.500 C 189.710 194.711 189.559 193.805 189.650 192.950 C 189.687 192.599 190.502 192.538 190.400 192.200 C 190.069 191.103 189.166 190.266 188.550 189.300 Z " transform="matrix(1, 0, 0, 1, -175, -133)"/>
  <path id="ID0.39981374330818653" fill="none" stroke="#FFFFFF" stroke-width="1.995125" stroke-linecap="round" d="M 215.300 191.500 C 215.300 191.500 215.400 190.970 216 190.750 C 218.399 189.871 220.824 188.934 223.350 188.550 C 224.115 188.434 225.121 188.656 225.550 189.300 C 226.021 190.007 225.840 191.052 225.550 191.850 C 225.192 192.836 224.253 193.509 223.700 194.400 C 223.268 195.096 223.054 195.918 222.600 196.600 C 222.313 197.031 222.011 197.613 221.500 197.700 C 220.411 197.886 218.975 198.138 218.200 197.350 C 217.586 196.725 218.536 195.624 218.600 194.750 C 218.670 193.787 218.915 192.763 218.600 191.850 C 218.374 191.193 217.600 190.883 217.100 190.400 Z " transform="matrix(1, 0, 0, 1, -175, -133)"/>
  <path id="ID0.8569314335472882" fill="none" stroke="#FFFFFF" stroke-width="1.995125" stroke-linecap="round" d="M 185.250 141.700 C 185.250 141.700 184.436 142.381 184.550 142.800 C 184.981 144.380 185.557 146.078 186.750 147.200 C 187.675 148.070 189.163 148.014 190.400 148.300 C 190.757 148.383 191.424 148.658 191.500 148.300 C 191.730 147.217 191.325 146.084 191.100 145 C 190.840 143.746 191.026 142.130 190.050 141.300 C 189.213 140.588 187.831 141.100 186.750 141.300 C 186.403 141.364 186.250 141.800 186 142.050 Z " transform="matrix(1, 0, 0, 1, -175, -133)"/>
  <path id="ID0.26135892141610384" fill="none" stroke="#FFFFFF" stroke-width="1.995125" stroke-linecap="round" d="M 250.800 162.550 C 250.800 162.550 250.501 158.393 250.800 156.350 C 250.992 155.041 251.405 153.669 252.250 152.650 C 252.741 152.058 253.688 151.846 254.450 151.950 C 255.639 152.112 256.865 152.589 257.750 153.400 C 258.562 154.145 259.180 155.250 259.250 156.350 C 259.324 157.506 259.161 159.085 258.150 159.650 C 256.755 160.430 254.906 159.286 253.350 159.650 C 252.243 159.909 251.382 160.799 250.450 161.450 C 250.160 161.652 249.950 161.950 249.700 162.200 Z " transform="matrix(1, 0, 0, 1, -175, -133)"/>
  <path id="ID0.978128170594573" fill="none" stroke="#FFFFFF" stroke-width="1.995125" stroke-linecap="round" d="M 217.100 145.700 C 217.100 145.700 217.072 141.028 217.500 138.750 C 217.699 137.689 218.222 136.648 218.950 135.850 C 219.502 135.245 220.342 134.885 221.150 134.750 C 222.595 134.509 224.143 134.341 225.550 134.750 C 226.364 134.986 226.903 135.830 227.350 136.550 C 227.543 136.861 227.775 137.451 227.350 137.650 C 225.649 138.446 223.748 138.767 221.900 139.100 C 221.048 139.253 219.840 138.423 219.300 139.100 C 218.528 140.068 219.618 141.758 218.950 142.800 C 218.359 143.722 216.982 143.767 216 144.250 Z " transform="matrix(1, 0, 0, 1, -175, -133)"/>
  <path id="ID0.8067452698014677" fill="none" stroke="#FFFFFF" stroke-width="1.995125" stroke-linecap="round" d="M 247.150 185.250 C 247.150 185.250 249.050 187.548 248.950 188.900 C 248.891 189.702 247.549 189.708 246.800 190 C 245.960 190.327 245.019 190.375 244.200 190.750 C 243.402 191.116 242.564 192.609 242 192.200 C 241.289 191.684 241.338 189.960 241.650 188.900 C 241.893 188.075 242.884 187.699 243.500 187.100 " transform="matrix(1, 0, 0, 1, -175, -133)"/>
</svg>