<svg version="1.1" width="56" height="56" xmlns="http://www.w3.org/2000/svg" xmlns:xlink="http://www.w3.org/1999/xlink">
  <!-- Exported by Scratch - http://scratch.mit.edu/ -->
  <path id="ID0.9340036762878299" fill="none" stroke="#FFFFFF" stroke-width="2" d="M 203.825 146.050 C 211.129 146.050 217.748 149.017 222.541 153.809 C 227.333 158.602 230.300 165.221 230.300 172.525 C 230.300 179.829 227.333 186.448 222.541 191.241 C 217.748 196.033 211.129 199 203.825 199 C 196.521 199 189.902 196.033 185.109 191.241 C 180.317 186.448 177.350 179.829 177.350 172.525 C 177.350 165.221 180.317 158.602 185.109 153.809 C 189.902 149.017 196.521 146.050 203.825 146.050 Z " transform="matrix(1, 0, 0, 1, -175.6, -144.1)"/>
  <path id="ID0.958426502533257" fill="#FFFFFF" stroke="#FFFFFF" stroke-width="1.995125" d="M 162.750 150.850 C 164.019 150.850 165.169 151.343 166.002 152.140 C 166.835 152.936 167.350 154.036 167.350 155.250 C 167.350 156.464 166.835 157.564 166.002 158.360 C 165.169 159.157 164.019 159.650 162.750 159.650 C 161.481 159.650 160.331 159.157 159.498 158.360 C 158.665 157.564 158.150 156.464 158.150 155.250 C 158.150 154.036 158.665 152.936 159.498 152.140 C 160.331 151.343 161.481 150.850 162.750 150.850 L 162.750 150.850 L 162.750 150.850 L 162.750 150.850 Z " transform="matrix(1, 0, 0, 1, -144, -138)"/>
  <path id="ID0.33686691243201494" fill="#C5D6E9" stroke="#FFFFFF" stroke-width="3.4415" stroke-linecap="round" d="M 155.600 162.550 L 155.900 162.850 " transform="matrix(1, 0, 0, 1, -144, -138)"/>
</svg>