<svg version="1.1" width="57" height="70" xmlns="http://www.w3.org/2000/svg" xmlns:xlink="http://www.w3.org/1999/xlink">
  <!-- Exported by Scratch - http://scratch.mit.edu/ -->
  <path id="ID0.8442867668345571" fill="none" stroke="#FFFFFF" stroke-width="1.995125" stroke-linecap="round" d="M 184.550 163.300 C 184.550 163.300 181.834 165.526 180.850 166.950 C 180.192 167.903 179.874 169.098 179.750 170.250 C 179.503 172.551 179.339 174.922 179.750 177.200 C 179.974 178.440 181.037 179.373 181.600 180.500 C 181.772 180.844 181.808 181.742 181.950 181.600 C 182.146 181.404 182.322 180.570 182.350 179.750 C 182.462 176.472 182.263 173.179 182.350 169.900 C 182.379 168.795 182.328 167.640 182.700 166.600 C 182.849 166.183 183.434 166.100 183.800 165.850 Z " transform="matrix(1, 0, 0, 1, -178, -150)"/>
  <path id="ID0.6507269609719515" fill="none" stroke="#FFFFFF" stroke-width="1.995125" stroke-linecap="round" d="M 219.700 153.050 C 219.700 153.050 220.406 154.786 221.150 155.250 C 222.459 156.067 224.145 156.063 225.550 156.700 C 226.843 157.286 228.130 157.967 229.200 158.900 C 230.114 159.697 230.908 160.692 231.400 161.800 C 232.392 164.033 233.032 166.424 233.600 168.800 C 233.770 169.513 233.556 170.269 233.600 171 C 233.673 172.219 234.081 173.436 233.950 174.650 C 233.826 175.802 233.330 179.063 232.850 177.950 C 230.928 173.499 230.425 168.410 229.200 163.650 C 228.227 159.868 227.378 156.039 226.250 152.300 C 225.968 151.365 225.783 151.800 225.550 151.550 " transform="matrix(1, 0, 0, 1, -178, -150)"/>
  <path id="ID0.31621858663856983" fill="none" stroke="#FFFFFF" stroke-width="1.995125" stroke-linecap="round" d="M 200.650 181.600 C 200.650 181.600 200.284 196.516 200.650 203.950 C 200.741 205.808 201.616 204.291 201.750 203.950 C 202.202 202.798 202.162 201.486 202.100 200.250 C 202.044 199.128 201.608 198.054 201.400 196.950 C 201.241 196.105 201.034 195.259 201 194.400 C 200.900 191.838 201 189.264 201 186.700 " transform="matrix(1, 0, 0, 1, -178, -150)"/>
  <path id="ID0.5860689729452133" fill="none" stroke="#FFFFFF" stroke-width="1.995125" stroke-linecap="round" d="M 221.150 195.850 C 221.150 195.850 221.410 198.049 221.500 199.150 C 221.660 201.113 221.739 203.087 221.900 205.050 C 221.989 206.135 222.134 207.218 222.250 208.300 C 222.367 209.399 222.073 210.629 222.600 211.600 C 222.917 212.184 224.062 212.861 224.450 212.350 C 225.162 211.411 225.075 209.890 224.800 208.700 C 224.321 206.630 222.820 204.897 222.250 202.850 C 221.955 201.791 222.337 200.645 222.250 199.550 C 222.220 199.167 222.017 198.816 221.900 198.450 Z " transform="matrix(1, 0, 0, 1, -178, -150)"/>
  <path id="ID0.18296536151319742" fill="none" stroke="#FFFFFF" stroke-width="1.995125" stroke-linecap="round" d="M 184.900 199.550 C 184.900 199.550 184.578 202.480 184.550 203.950 C 184.461 208.578 183.506 213.341 184.550 217.850 C 184.811 218.977 186.803 218.552 187.850 218.200 C 188.832 217.870 189.842 217.015 190.050 216 C 190.491 213.843 189.893 211.588 189.650 209.400 C 189.526 208.284 189.478 207.092 188.950 206.100 C 188.469 205.196 187.171 204.884 186.750 203.950 C 186.140 202.595 186.416 200.977 186 199.550 C 185.896 199.193 185.500 199.050 185.250 198.800 Z " transform="matrix(1, 0, 0, 1, -178, -150)"/>
</svg>